<svg width="15" height="15" viewBox="0 0 15 15" fill="none" xmlns="http://www.w3.org/2000/svg">
<path fill-rule="evenodd" clip-rule="evenodd" d="M5.26112 3.75V3C5.26112 1.7574 6.26685 0.75 7.50748 0.75C8.74815 0.75 9.75384 1.7574 9.75384 3V3.75H10.2428C10.7918 3.75 11.2604 4.14761 11.3506 4.69001L12.3593 9.94001C12.4734 10.6258 11.9455 11.25 11.2514 11.25H3.74839C3.05439 11.25 2.52647 10.6258 2.64056 9.94001L3.66452 4.69001C3.75484 4.14761 4.22334 3.75 4.77244 3.75H5.26112ZM6.00994 5.625C6.00994 5.83209 5.84228 6 5.63552 6C5.42869 6 5.2611 5.83209 5.2611 5.625V4.5H4.77227C4.58921 4.5 4.43301 4.63251 4.40297 4.81331L3.37901 10.0633C3.34092 10.2919 3.51695 10.5 3.74822 10.5H11.2512C11.4827 10.5 11.6586 10.2919 11.6205 10.0633L10.6119 4.81331C10.5817 4.6325 10.4256 4.5 10.2426 4.5H9.75366V5.625C9.75366 5.83209 9.58609 6 9.37933 6C9.17258 6 9.00491 5.83209 9.00491 5.625V4.5H6.00984L6.00994 5.625ZM9.00501 3.75V3C9.00501 2.17157 8.33454 1.5 7.50744 1.5C6.68034 1.5 6.00994 2.17157 6.00994 3V3.75H9.00501Z" fill="#1E381E"/>
</svg>
