<svg width="73" height="60" viewBox="0 0 73 60" fill="none" xmlns="http://www.w3.org/2000/svg">
<g clip-path="url(#clip0_3_872)">
<path fill-rule="evenodd" clip-rule="evenodd" d="M0 0H72.9788V60H0V0Z" fill="#A9B19C"/>
<path fill-rule="evenodd" clip-rule="evenodd" d="M35.621 50.3516C43.6835 50.3516 51.683 49.1781 57.9694 46.3209C66.5922 42.4013 71.4122 36.1861 71.8848 29.7757C72.0525 27.4984 71.1927 25.435 69.9599 23.3849C64.706 14.6459 51.6842 9.70971 36.011 9.64839C28.0246 9.61727 20.8107 11.2259 14.5724 14.023C5.87387 17.9224 1.07275 23.8148 1.07275 30.2884C1.07275 41.4043 16.498 50.3516 35.621 50.3516Z" fill="#1E381E"/>
<path fill-rule="evenodd" clip-rule="evenodd" d="M35.9331 48.4907C43.4879 48.4907 50.5936 47.3349 56.2605 45.1093C65.1199 41.6286 70.4996 35.9298 70.556 29.8229C70.6461 20.0094 56.3132 11.7964 36.9467 11.7964C30.2892 11.7964 24.0809 12.7697 18.7557 14.2648C8.54093 17.1329 2.42529 24.1518 2.42529 30.5918C2.42529 40.4062 16.5663 48.4907 35.9331 48.4907Z" fill="#A9B19C"/>
<path fill-rule="evenodd" clip-rule="evenodd" d="M12.5016 29.4956L12.9824 28.2051H2.22162L1.77979 29.4956H12.5016ZM19.87 15.1269H29.8122L29.2663 16.3773H21.2735L19.4024 21.57H27.1998L26.8882 22.5635H18.9735L16.7904 28.0127H25.6404L25.2894 29.4552H14.529L19.87 15.1269ZM41.1572 22.788C41.1572 22.788 41.8205 19.3901 43.497 17.7553C45.1734 16.1205 46.3433 15.6719 46.3433 15.6719C47.3179 14.9666 51.4507 13.9089 53.9851 15.191C56.5195 16.4731 57.2646 18.0248 56.8697 21.089C56.5191 23.8136 54.2971 26.3138 54.2971 26.3138C54.2971 26.2817 51.9967 29.3269 47.3572 29.359C47.3572 29.359 43.8093 29.6155 42.1715 27.5639C40.534 25.5126 41.1572 22.788 41.1572 22.788Z" fill="#1E381E"/>
<path fill-rule="evenodd" clip-rule="evenodd" d="M50.7489 15.864C50.7489 15.864 54.7258 15.6075 54.9594 18.9089C55.193 22.2106 53.1269 25.0634 53.1269 25.0634C53.1269 25.0634 51.2945 28.1086 47.201 28.2048C43.5769 28.2898 43.1851 26.1214 43.1851 26.1214C43.1851 26.1214 42.6785 24.5828 43.3804 22.1785C43.3804 22.1785 44.0646 19.7982 45.2129 18.4604C46.616 16.8255 47.9025 15.8961 50.7489 15.864Z" fill="#A9B19C"/>
<path fill-rule="evenodd" clip-rule="evenodd" d="M31.9952 30.0319H41.898L41.3525 31.2985H33.4964L31.5469 36.1864H39.3837L38.9351 37.4371H31.04L29.1011 42.8539H38.1165L37.5316 44.3605H26.6538L31.9952 30.0319ZM70.6714 31.2098L71.0353 29.7437H67.6043L67.1235 31.2098H70.6714ZM53.9552 29.7437L53.3611 31.1708H58.7252L53.9063 44.3281L55.7778 44.2967L60.4956 31.1774H65.0567L65.6159 29.7437H53.9552ZM38.5061 44.3605L43.8089 30.0322H50.0472C50.0472 30.0322 53.2438 30.0966 53.3997 32.9815C53.5349 35.4789 49.2669 36.7635 49.2669 36.7635C49.2669 36.7635 50.9823 36.8918 50.6704 40.0331C50.3584 43.1745 50.5144 44.2646 50.5144 44.2646H48.4873L48.9212 39.3281C48.9212 39.3281 49.5202 37.5171 47.4927 37.4533C45.4657 37.3889 42.7166 37.4533 42.7166 37.4533L40.2424 44.3608H38.5061V44.3605Z" fill="#1E381E"/>
<path fill-rule="evenodd" clip-rule="evenodd" d="M43.1855 36.1704L44.9979 31.2983H49.7351C49.7351 31.2983 52.7757 31.4425 51.4403 34.0743C50.9057 35.1261 48.8771 36.1704 47.5596 36.1704H43.1855Z" fill="#A9B19C"/>
<path fill-rule="evenodd" clip-rule="evenodd" d="M27.3169 34.0389C27.3169 34.0389 28.2528 30.8975 23.9249 30.9937C23.9249 30.9937 22.5214 30.8654 21.2557 31.5415C20.1248 32.1451 19.1685 32.9167 18.3885 34.0706C18.3885 34.0706 17.375 34.9042 16.5565 37.4685C16.5565 37.4685 16.2055 38.8789 16.2445 40.2893C16.2789 41.5406 16.4785 43.3024 20.143 43.3345C23.8079 43.3668 24.6659 41.0267 24.6659 41.0267H26.8493C26.8493 41.0267 25.6798 44.6166 20.1434 44.6166C20.1434 44.6166 15.4176 44.6312 14.685 41.7635C13.8661 38.5583 15.387 35.6737 15.387 35.6737C15.387 35.6737 17.2194 32.0838 19.8704 30.9613C19.8704 30.9613 21.9369 29.9998 24.0423 29.9998C26.1477 29.9998 29.6566 30.5769 29.2277 34.0389H27.3169ZM40.417 18.9091C40.417 18.9091 41.3526 15.768 37.0251 15.8642C37.0251 15.8642 35.6212 15.7359 34.3559 16.4117C33.225 17.0153 32.2683 17.7872 31.4887 18.9415C31.4887 18.9415 30.4752 19.7747 29.6563 22.339C29.6563 22.339 29.3057 23.7494 29.3447 25.1598C29.3791 26.4111 29.5783 28.1729 33.2432 28.205C36.9077 28.237 37.766 25.8969 37.766 25.8969H39.9491C39.9491 25.8969 38.7792 29.4871 33.2432 29.4871C33.2432 29.4871 28.5174 29.5017 27.7848 26.6343C26.9659 23.4288 28.4864 20.5439 28.4864 20.5439C28.4864 20.5439 30.3188 16.954 32.9702 15.8321C32.9702 15.8321 35.0367 14.8706 37.1421 14.8706C39.2475 14.8706 42.7561 15.4477 42.3271 18.9094L40.417 18.9091ZM66.5447 46.638V45.0244H66.7427C67.0236 45.0244 67.3504 45.0135 67.6063 45.1131C67.9508 45.2395 68.1174 45.5339 68.1174 45.8281C68.1174 46.0653 68.0088 46.3015 67.7786 46.4537C67.5351 46.6277 67.2349 46.638 66.9347 46.638H66.5447ZM67.0437 46.8746C67.8422 46.8855 68.4241 46.5281 68.4241 45.8393C68.4241 45.5025 68.2836 45.1869 67.9384 44.9876C67.6124 44.7931 67.2285 44.7875 66.8389 44.7875H66.2377V48.7513H66.5447V46.8746H66.6984L68.2712 48.7513H68.6225L67.0437 46.8746Z" fill="#1E381E"/>
<path d="M67.1573 50.0914L67.1573 50.0914C66.1414 50.079 65.1568 49.7392 64.4195 49.124C63.6795 48.5065 63.2402 47.6515 63.2402 46.7352C63.2402 45.8188 63.6795 44.9638 64.4195 44.3463C65.1568 43.7311 66.1414 43.3913 67.1573 43.3789L67.1634 43.3789V43.3789C69.2621 43.3789 71.1367 44.7951 71.1368 46.7351L67.1573 50.0914ZM67.1573 50.0914L67.1635 50.0914M67.1573 50.0914L67.1635 50.0914M67.1635 50.0914C67.6731 50.0914 68.1793 50.0089 68.654 49.8472M67.1635 50.0914L68.654 49.8472M68.654 49.8472C69.1285 49.6855 69.5652 49.4468 69.9372 49.1409M68.654 49.8472L69.9372 49.1409M69.9372 49.1409C70.3093 48.8349 70.6109 48.4663 70.819 48.053M69.9372 49.1409L70.819 48.053M70.819 48.053C71.0275 47.6392 71.1368 47.1911 71.1368 46.7352L70.819 48.053Z" stroke="#1E381E" stroke-miterlimit="2.613"/>
</g>
<defs>
<clipPath id="clip0_3_872">
<rect width="72.9788" height="60" fill="white"/>
</clipPath>
</defs>
</svg>
