<svg width="15" height="15" viewBox="0 0 15 15" fill="none" xmlns="http://www.w3.org/2000/svg">
<path d="M5.24971 1.68433C4.59312 1.68433 3.93747 1.94423 3.44217 2.46428C2.45159 3.50449 2.45285 5.16964 3.44217 6.21043L7.23717 10.2043C7.30514 10.2756 7.3993 10.3159 7.49782 10.3159C7.59626 10.3159 7.69051 10.2756 7.75848 10.2043C9.02487 8.87445 10.2909 7.54414 11.5571 6.21428C12.5477 5.17408 12.5477 3.50807 11.5571 2.46814C10.5665 1.42793 8.92891 1.42793 7.93827 2.46814L7.49947 2.92935L7.05702 2.46437C6.56174 1.9443 5.90615 1.68441 5.24947 1.68441L5.24971 1.68433ZM5.24971 2.38928C5.71218 2.38928 6.17373 2.57896 6.53592 2.95933L7.24087 3.69812L7.24096 3.69804C7.30893 3.76935 7.4031 3.8097 7.50162 3.8097C7.60005 3.8097 7.69422 3.76935 7.76219 3.69804L8.46348 2.96301C9.18787 2.2023 10.3115 2.2023 11.036 2.96301C11.7604 3.72373 11.7604 4.95855 11.036 5.71916C9.85674 6.95741 8.67884 8.19716 7.49984 9.43551L3.96369 5.71551C3.23964 4.95379 3.2393 3.71989 3.96369 2.95937C4.32588 2.57901 4.78743 2.38933 5.2499 2.38933L5.24971 2.38928Z" fill="#1E381E"/>
</svg>
