<svg width="30" height="30" viewBox="0 0 30 30" fill="none" xmlns="http://www.w3.org/2000/svg">
<circle cx="15" cy="15" r="14.5" transform="matrix(-1 0 0 1 30 0)" stroke="#1E381E"/>
<path d="M22.1445 14.5107H8.39005V14.8887H22.1445V14.5107Z" fill="#1E381E"/>
<path d="M9.59176 15.9887C9.65029 15.9887 9.70804 15.9615 9.74508 15.9106C9.80625 15.8261 9.78766 15.7079 9.7029 15.6468L8.49856 14.7742C8.46771 14.752 8.45018 14.7266 8.45018 14.7046C8.45004 14.6827 8.46758 14.6572 8.49843 14.6348L9.70395 13.7526C9.78806 13.6911 9.80638 13.5727 9.74481 13.4886C9.68338 13.4043 9.56552 13.386 9.48075 13.4476L8.27523 14.3297C8.1459 14.4242 8.07207 14.5612 8.07247 14.7054C8.0726 14.8497 8.14735 14.9862 8.27695 15.0802L9.48128 15.9528C9.5145 15.9769 9.55326 15.9887 9.59176 15.9887V15.9887Z" fill="#1E381E"/>
</svg>
