<svg width="73" height="60" viewBox="0 0 73 60" fill="none" xmlns="http://www.w3.org/2000/svg">
<path fill-rule="evenodd" clip-rule="evenodd" d="M36.4886 3.23488C43.2013 3.23488 49.2932 5.38742 53.8168 8.89639L43.2756 17.5621C42.58 18.1343 43.6238 18.9931 44.3194 18.4203L54.8575 9.75371C59.1255 13.4699 61.7437 18.4811 61.7437 23.9977C61.7437 35.4731 50.4455 44.7611 36.4889 44.7611C29.7754 44.7611 23.6832 42.6086 19.1627 39.103L24.9647 34.3281C25.4473 33.9447 25.1027 33.2758 24.4332 33.2891C24.2414 33.2952 24.059 33.3618 23.9225 33.4753L18.118 38.2449C13.8513 34.5256 11.2331 29.5174 11.2331 23.9974C11.2331 12.5254 22.5313 3.23401 36.489 3.23401L36.4886 3.23488ZM36.4886 2.02588C21.7375 2.02588 9.7627 11.871 9.7627 23.9987C9.7627 36.1265 21.7375 45.9707 36.4886 45.9707C51.2397 45.9707 63.2134 36.1273 63.2134 23.9987C63.2134 11.871 51.2397 2.02588 36.4886 2.02588Z" fill="#1E381E"/>
<path fill-rule="evenodd" clip-rule="evenodd" d="M53.2588 30.1382C53.7019 30.1516 54.0562 30.3324 54.3507 30.6267C54.773 31.0465 54.973 31.7018 54.7563 32.2907C54.3951 33.2801 53.7256 34.0187 52.9893 34.4299C52.5637 34.6663 52.1312 34.7962 51.6951 34.8186C51.8567 34.599 52.0091 34.377 52.1369 34.1487C52.9111 32.8017 53.2556 31.4487 53.2589 30.1382H53.2588ZM35.697 11.4567C35.7614 11.6536 35.8184 11.971 35.7748 12.3906C35.6262 13.7901 33.8929 16.1095 31.7679 17.7404C31.5076 17.9373 31.4563 18.2624 31.6461 18.5068C32.2684 19.3067 32.7876 20.271 32.9025 21.701C32.9363 22.1453 33.5247 22.4092 33.9976 22.1875C34.8381 21.8041 35.6938 21.5095 36.5514 21.3042C40.9436 20.2402 45.5658 21.5262 48.5554 23.9928C51.5454 26.4568 52.8869 30.0092 50.805 33.6348C49.6264 35.6843 46.6197 37.6349 43.4742 37.6349H37.5886C36.9664 37.6349 36.8018 37.5204 36.8421 37.3175C36.9431 36.812 37.4331 36.5374 38.2614 36.3174C39.0787 36.1035 40.1795 36.0315 41.2038 36.0117C41.4237 36.151 41.6526 36.2809 41.8933 36.4038C42.7281 36.832 43.5047 35.8038 42.6699 35.3763C40.9945 34.5208 39.9368 33.2455 39.7169 31.8543C39.4632 30.288 40.2846 28.723 42.0138 27.6094C42.5786 27.2569 42.2675 26.5149 41.5577 26.5236C41.3923 26.5236 41.2335 26.5705 41.1056 26.6565C39.0201 28.0012 37.9327 29.995 38.254 32.0117C38.4226 33.059 38.9631 34.0313 39.7804 34.8677C39.1117 34.9172 38.4365 35.0036 37.811 35.168C37.6216 35.2176 37.4322 35.2815 37.253 35.3515C35.8134 35.1014 34.5163 34.7599 33.3214 34.2513C33.6354 32.9706 33.1691 31.7759 32.4658 30.7846C31.9726 30.0845 30.6988 30.6901 31.1923 31.3899C31.969 32.4928 32.3412 33.5066 31.5503 34.8071L30.138 37.1298C30.0496 37.2771 29.9221 37.4348 29.8065 37.5265C29.6916 37.621 29.6305 37.6434 29.5528 37.6434H27.3499C27.0494 37.6407 27.174 37.324 27.4175 37.2105C27.6244 37.1104 27.8944 37.0719 28.2219 37.0692C28.5766 37.0632 28.8775 36.8495 28.9349 36.5609C29.0498 35.9636 29.1919 35.225 29.1174 34.3913C28.996 33.0387 27.9082 32.2414 27.1344 31.2165C26.3684 30.2007 25.7221 28.9167 26.0532 26.431C26.9927 26.3201 27.9583 26.064 28.8444 25.6753C30.1419 25.1034 31.2908 24.2308 31.7563 23.0449C32.0911 22.262 30.6379 21.8756 30.3546 22.6699C30.0438 23.4614 29.2131 24.1391 28.1518 24.6085C27.0938 25.0729 25.8342 25.3119 24.8376 25.2865C22.8987 25.1227 21.7466 24.7618 21.2224 24.2733C20.6959 23.7811 20.5472 23.0231 20.926 21.645V21.6403C21.8781 18.0514 26.0715 16.0207 29.815 16.396C30.1868 16.4318 30.5313 16.2342 30.6193 15.9346C31.1324 14.1346 32.7036 12.3653 33.9608 11.615C34.3933 11.3595 34.7341 11.2346 34.9879 11.1794C35.457 11.0903 35.6228 11.2149 35.6969 11.4566L35.697 11.4567ZM30.9034 10.3565C31.2817 10.7486 31.4405 11.4982 31.4711 11.9433C30.5727 12.8707 29.7981 14.0517 29.3623 15.3209C29.2947 15.3209 29.2307 15.3236 29.1631 15.3209C29.0108 14.3763 29.0886 13.379 29.3493 12.5235C29.6225 11.6124 30.1128 10.8708 30.5514 10.5346C30.7669 10.3709 30.889 10.3565 30.9033 10.3565L30.9034 10.3565ZM30.9192 9.14846C30.4086 9.14579 29.9496 9.34835 29.5545 9.64835C28.771 10.2457 28.2436 11.1651 27.9223 12.2319C27.6291 13.2009 27.5338 14.2953 27.6934 15.3765C23.9496 15.7569 20.4195 17.8847 19.4895 21.3759C19.0639 22.9264 19.1722 24.187 20.115 25.0709C21.0407 25.9348 22.541 26.298 24.5781 26.4789C24.2747 29.0842 25.0277 30.715 25.8858 31.8544C26.774 33.0293 27.575 33.6597 27.6496 34.4764C27.6968 35.0125 27.6023 35.5047 27.5148 35.9931C27.2443 36.0353 26.9808 36.0293 26.7072 36.1549C26.2006 36.3852 25.755 36.7907 25.4805 37.3575C25.3249 37.6796 25.3722 38.1574 25.7302 38.4578C26.0849 38.7581 26.5715 38.8525 27.1359 38.8525H29.555C30.0991 38.8525 30.5486 38.6302 30.8419 38.3911C31.1359 38.1521 31.3253 37.8855 31.4568 37.6696L32.8288 35.4143C33.7785 35.8003 34.7678 36.0923 35.8058 36.3166C35.6267 36.5335 35.4874 36.7753 35.4108 37.0525C35.3066 37.4329 35.3298 37.9361 35.7411 38.3171C36.1536 38.6975 36.795 38.8478 37.5892 38.8478H43.4748C46.3569 38.8478 48.9751 37.609 50.7083 35.945C51.7827 36.1562 52.8936 35.9423 53.8135 35.4307C54.8773 34.836 55.7186 33.8644 56.165 32.6446C56.5303 31.6418 56.2294 30.5945 55.4857 29.8559C54.9384 29.3145 54.0971 28.9508 53.1681 28.9448C52.8171 26.7367 51.4988 24.7144 49.5933 23.1447C46.2518 20.3864 41.0998 18.9421 36.1329 20.1447C35.4369 20.3111 34.7544 20.589 34.0718 20.8589C33.856 19.8695 33.5379 18.995 33.0749 18.3284C35.2369 16.587 37.0378 14.4066 37.2414 12.4981C37.2984 11.9647 37.2577 11.498 37.096 11.0901C36.9331 10.6783 36.6192 10.312 36.1639 10.1095C35.2512 9.70366 34.1663 10.0007 33.0993 10.6368C32.9983 10.6951 32.8993 10.767 32.8016 10.831C32.6798 10.3894 32.4807 10.009 32.1834 9.69829C31.8922 9.38991 31.4295 9.1542 30.9188 9.14851L30.9192 9.14846Z" fill="#1E381E"/>
</svg>
