<svg width="30" height="30" viewBox="0 0 30 30" fill="none" xmlns="http://www.w3.org/2000/svg">
<circle cx="15" cy="15" r="14.5" stroke="#1E381E"/>
<path d="M7.85547 14.5107H21.6099V14.8887H7.85547V14.5107Z" fill="#1E381E"/>
<path d="M20.4082 15.9887C20.3497 15.9887 20.292 15.9615 20.2549 15.9106C20.1937 15.8261 20.2123 15.7079 20.2971 15.6468L21.5014 14.7742C21.5323 14.752 21.5498 14.7266 21.5498 14.7046C21.55 14.6827 21.5324 14.6572 21.5016 14.6348L20.2961 13.7526C20.2119 13.6911 20.1936 13.5727 20.2552 13.4886C20.3166 13.4043 20.4345 13.386 20.5193 13.4476L21.7248 14.3297C21.8541 14.4242 21.9279 14.5612 21.9275 14.7054C21.9274 14.8497 21.8526 14.9862 21.7231 15.0802L20.5187 15.9528C20.4855 15.9769 20.4467 15.9887 20.4082 15.9887V15.9887Z" fill="#1E381E"/>
</svg>
