<svg width="74" height="60" viewBox="0 0 74 60" fill="none" xmlns="http://www.w3.org/2000/svg">
<path d="M35.6038 46.3413H30.591C30.2745 46.3413 30.0102 46.1438 29.9793 45.885C26.5523 16.9975 11.2185 2.77153 11.0642 2.63096C10.8688 2.45284 10.8517 2.18665 11.0235 1.99313C11.1958 1.7996 11.5102 1.73297 11.7753 1.83208C26.418 7.33151 31.7131 25.9349 33.2123 32.9181C36.3102 22.9907 42.9174 14.9926 46.779 10.9349C47.0507 10.6493 47.3015 10.3919 47.5276 10.1628C43.6823 11.6792 41.4282 16.0537 41.4021 16.1046C41.2975 16.3108 41.0438 16.4364 40.7717 16.4129C40.5021 16.3902 40.2826 16.2244 40.2317 16.0051C40.1784 15.7758 38.9704 10.339 43.1577 6.17369C46.6743 2.67483 52.9011 1.18854 61.5911 1.7882C61.807 1.80293 61.9967 1.91008 62.092 2.07012C62.1873 2.23017 62.1727 2.41867 62.0546 2.56767C60.3344 4.73633 59.7475 6.92298 59.1269 9.23864C58.6129 11.1535 58.0822 13.1333 56.8544 15.0682C54.6333 18.5685 49.313 18.9468 47.1277 18.9468C46.9041 18.9468 46.7164 18.9428 46.571 18.9381C37.3929 28.7618 36.2273 45.6904 36.2168 45.8618C36.1997 46.1303 35.9297 46.3409 35.6027 46.3409L35.6038 46.3413ZM31.1477 45.3308H35.0276C35.2797 42.4008 36.977 27.3403 45.8024 18.1071C45.9302 17.9729 46.1318 17.9009 46.3387 17.9163C46.3517 17.9166 46.6466 17.9367 47.1292 17.9367C49.0897 17.9367 53.8557 17.6119 55.7657 14.6016C56.9178 12.7852 57.409 10.957 57.9282 9.02138C58.482 6.95652 59.053 4.82806 60.4946 2.73544C52.7243 2.34168 47.2291 3.71918 44.113 6.81158C41.6638 9.24235 41.2508 12.236 41.2737 14.0852C42.638 12.1416 45.3567 9.11044 49.2561 8.68958C49.511 8.66279 49.7611 8.76826 49.8812 8.95677C50.0009 9.14527 49.9647 9.37462 49.7908 9.53132C49.7827 9.53835 48.9808 10.2639 47.7493 11.558C44.4278 15.0489 36.4084 24.3912 33.7029 35.7192C33.6447 35.9626 33.3784 36.1203 33.0774 36.127C32.7752 36.118 32.526 35.9294 32.4898 35.683C32.4527 35.4326 28.8135 11.8459 13.8364 3.91044C18.0775 8.73153 28.3227 22.4744 31.148 45.331L31.1477 45.3308Z" fill="#1E381E"/>
</svg>
